<svg xmlns="http://www.w3.org/2000/svg" width="25.669" height="25.669" viewBox="0 0 25.669 25.669">
  <path id="Union_8" data-name="Union 8" d="M0,12.835A12.774,12.774,0,0,1,2.5,5.241L.978,3.724a.428.428,0,0,1,.3-.729H5.988a.428.428,0,0,1,.43.43V8.129a.428.428,0,0,1-.729.3L4.334,7.082A10.268,10.268,0,0,0,17.016,22.214a.428.428,0,0,1,.556.2l.767,1.532a.428.428,0,0,1-.2.582A12.838,12.838,0,0,1,0,12.835Zm24.383,9.841H19.678a.428.428,0,0,1-.426-.43V17.54a.427.427,0,0,1,.729-.3l1.349,1.35A10.269,10.269,0,0,0,8.653,3.452a.428.428,0,0,1-.559-.2L7.33,1.721a.428.428,0,0,1,.206-.582A12.8,12.8,0,0,1,12.835,0h0A12.821,12.821,0,0,1,23.17,20.426l1.517,1.517a.428.428,0,0,1-.3.733ZM8.8,18.339a.76.76,0,0,1-.759-.759V10.7h9.588v6.883a.76.76,0,0,1-.759.759Zm2.592-4.316a.323.323,0,0,0,0,.456l.782.782a.322.322,0,0,0,.456,0L14.3,13.593a.323.323,0,1,0-.456-.456L12.4,14.577l-.554-.554a.323.323,0,0,0-.456,0Zm1.776-3.97V7.33h2.3a.621.621,0,0,1,.536.309l1.4,2.414Zm-4.9,0L9.663,7.64a.621.621,0,0,1,.536-.31h2.324v2.723Z"/>
</svg>
